<svg width="45" height="57" viewBox="0 0 45 57" fill="none" xmlns="http://www.w3.org/2000/svg">
<path d="M22.5 25.3125C24.83 25.3125 26.7188 23.4237 26.7188 21.0938C26.7188 18.7638 24.83 16.875 22.5 16.875C20.17 16.875 18.2812 18.7638 18.2812 21.0938C18.2812 23.4237 20.17 25.3125 22.5 25.3125Z" fill="#8F2FED"/>
<path d="M22.5 2.81662e-08C16.5714 -0.000296409 10.8823 2.33932 6.66912 6.51035C2.45596 10.6814 0.0592859 16.3467 0 22.275C0 37.6875 19.8281 54.8438 20.6719 55.575C21.1813 56.0107 21.8296 56.2502 22.5 56.2502C23.1704 56.2502 23.8187 56.0107 24.3281 55.575C25.3125 54.8438 45 37.6875 45 22.275C44.9407 16.3467 42.544 10.6814 38.3309 6.51035C34.1177 2.33932 28.4286 -0.000296409 22.5 2.81662e-08ZM22.5 30.9375C20.5531 30.9375 18.6499 30.3602 17.0311 29.2785C15.4123 28.1969 14.1506 26.6595 13.4056 24.8608C12.6605 23.0621 12.4656 21.0828 12.8454 19.1733C13.2252 17.2638 14.1627 15.5098 15.5394 14.1332C16.9161 12.7565 18.6701 11.819 20.5796 11.4391C22.4891 11.0593 24.4683 11.2543 26.267 11.9993C28.0658 12.7444 29.6031 14.0061 30.6848 15.6249C31.7664 17.2437 32.3438 19.1468 32.3438 21.0938C32.3438 23.7045 31.3066 26.2083 29.4606 28.0543C27.6145 29.9004 25.1107 30.9375 22.5 30.9375Z" fill="#8F2FED"/>
</svg>
