<svg width="21" height="21" viewBox="0 0 21 21" fill="none" xmlns="http://www.w3.org/2000/svg">
<path d="M17.2176 3.78244L13.4851 7.51489L17.2176 3.78244ZM13.4851 13.4851L17.2176 17.2176L13.4851 13.4851ZM7.51489 7.51489L3.78244 3.78244L7.51489 7.51489ZM7.51489 13.4851L3.78244 17.2176L7.51489 13.4851ZM20 10.5C20 11.7476 19.7543 12.9829 19.2769 14.1355C18.7994 15.2881 18.0997 16.3354 17.2175 17.2175C16.3354 18.0997 15.2881 18.7994 14.1355 19.2769C12.9829 19.7543 11.7476 20 10.5 20C9.25244 20 8.0171 19.7543 6.86451 19.2769C5.71191 18.7994 4.66464 18.0997 3.78249 17.2175C2.90033 16.3354 2.20056 15.2881 1.72314 14.1355C1.24572 12.9829 1 11.7476 1 10.5C1 7.98044 2.00089 5.56408 3.78249 3.78249C5.56408 2.00089 7.98044 1 10.5 1C13.0196 1 15.4359 2.00089 17.2175 3.78249C18.9991 5.56408 20 7.98044 20 10.5ZM14.7222 10.5C14.7222 11.6198 14.2774 12.6937 13.4856 13.4856C12.6937 14.2774 11.6198 14.7222 10.5 14.7222C9.3802 14.7222 8.30626 14.2774 7.51444 13.4856C6.72262 12.6937 6.27778 11.6198 6.27778 10.5C6.27778 9.3802 6.72262 8.30626 7.51444 7.51444C8.30626 6.72262 9.3802 6.27778 10.5 6.27778C11.6198 6.27778 12.6937 6.72262 13.4856 7.51444C14.2774 8.30626 14.7222 9.3802 14.7222 10.5V10.5Z" stroke="black" stroke-width="1.5" stroke-linecap="round" stroke-linejoin="round"/>
</svg>
