<svg width="23" height="20" viewBox="0 0 23 20" fill="none" xmlns="http://www.w3.org/2000/svg">
<path d="M16.2727 18.1819V16.2728C16.2727 15.2601 15.8705 14.289 15.1544 13.5729C14.4384 12.8569 13.4672 12.4546 12.4545 12.4546H4.81818C3.80554 12.4546 2.83437 12.8569 2.11832 13.5729C1.40227 14.289 1 15.2601 1 16.2728V18.1819" stroke="current" stroke-width="2" stroke-linecap="round" stroke-linejoin="round"/>
<path d="M8.63642 8.63636C10.7451 8.63636 12.4546 6.92691 12.4546 4.81818C12.4546 2.70946 10.7451 1 8.63642 1C6.5277 1 4.81824 2.70946 4.81824 4.81818C4.81824 6.92691 6.5277 8.63636 8.63642 8.63636Z" stroke="current" stroke-width="2" stroke-linecap="round" stroke-linejoin="round"/>
<path d="M22 18.1818V16.2727C21.9994 15.4267 21.7178 14.6049 21.1995 13.9363C20.6812 13.2677 19.9555 12.7901 19.1364 12.5786" stroke="current" stroke-width="2" stroke-linecap="round" stroke-linejoin="round"/>
<path d="M15.3182 1.12415C16.1395 1.33443 16.8675 1.81209 17.3873 2.48181C17.9072 3.15152 18.1894 3.97521 18.1894 4.82301C18.1894 5.67081 17.9072 6.49449 17.3873 7.16421C16.8675 7.83393 16.1395 8.31159 15.3182 8.52187" stroke="current" stroke-width="2" stroke-linecap="round" stroke-linejoin="round"/>
</svg>
